<svg width="119" height="117" viewBox="0 0 119 117" fill="none" xmlns="http://www.w3.org/2000/svg">
<g clip-path="url(#clip0_1082_3181)">
<path d="M116.014 103.393C112.784 100.915 109.013 98.9463 105.405 97.0794C105.298 97.0239 105.102 97.081 105.088 96.9775C104.948 96.0007 104.356 94.7904 104.971 94.0221C107.258 91.164 110.596 89.3391 113.401 86.995C115.945 84.869 117.621 82.8397 116.458 79.4583C115.413 76.4194 113.933 74.0558 110.525 73.6263C106.581 73.1293 102.277 74.6736 98.483 73.5105C96.6521 72.9493 95.2664 70.745 95.1643 68.8366C94.982 65.429 97.1767 62.3192 98.1749 59.0579C99.1418 55.8989 99.4362 53.294 96.6066 51.0812C94.0638 49.0926 91.5281 47.9123 88.4337 49.395C84.8674 51.1039 82.1824 55.0593 78.3003 55.7783C75.5288 56.2916 72.4167 54.8291 70.3328 52.9063C68.0536 50.8032 68.0356 47.1375 66.8741 44.2578C65.6365 41.1897 64.2229 38.9734 60.6195 39.0002C57.3849 39.0243 54.6591 39.6719 53.1747 42.7477C51.7418 45.717 50.7322 48.9692 49.8001 52.1651C49.7961 52.1786 49.7679 52.1716 49.7534 52.1744C49.3523 52.2504 49.341 52.6935 49.0579 52.7812C45.6479 53.8371 42.5225 56.1771 38.9666 56.2091C36.6436 56.2299 35.2608 53.4015 33.4075 52.003C30.7613 50.0061 28.3992 48.8298 25.3279 50.6967C22.5693 52.3735 20.5706 54.3238 20.8984 57.7192C21.2427 61.2861 23.4519 64.7718 23.1342 68.3687C22.9461 70.4972 21.3747 72.7554 19.3814 73.6078C15.9962 75.0555 12.03 73.8855 8.35192 74.034C5.0286 74.1681 2.45383 74.7526 1.28053 78.1335C0.227388 81.1682 -0.0637309 83.9377 2.36808 86.3511C5.25265 89.2139 6.98827 90.3172 10.3295 92.6252C10.5356 92.7676 13.5927 95.7031 13.607 95.9084C13.7517 97.9854 13.6822 98.5781 12.6414 100.382C10.9111 103.382 7.3294 104.82 4.67853 107.043C2.13904 109.174 0.467622 111.203 1.63527 114.585C2.68472 117.624 4.16984 119.985 7.5771 120.407C11.2739 120.865 15.4143 119.129 18.882 120.542C21.2106 121.491 22.7552 124.239 23.2088 126.712C23.8136 130.008 21.8739 133.285 21.2158 136.569C20.567 139.807 20.5345 142.429 23.5682 144.352C26.2943 146.079 28.9398 147.009 31.8719 145.232C34.6482 143.549 36.4536 139.463 39.7274 139.284C44.285 139.034 48.8183 140.755 52.8107 142.897C55.2695 144.216 55.3867 147.858 56.6801 150.336C58.2106 153.269 59.8355 155.335 63.4154 154.955C66.6315 154.613 69.2821 153.699 70.4541 150.494C71.5552 147.483 70.5101 143.327 72.8299 141.063C75.8807 138.085 80.8697 133.107 84.4896 135.569C85.7131 136.401 84.5172 135.532 84.5316 135.541C86.7118 136.854 88.8682 138.199 91.0429 139.525C93.8765 141.252 96.3402 142.192 99.2158 140.034C101.797 138.098 103.59 135.958 102.927 132.613C102.138 128.639 100.61 124.693 99.1318 120.926C99.0792 120.792 98.8709 120.708 98.9171 120.588C99.2346 119.765 99.3634 118.566 100.196 118.272C103.852 116.983 107.846 116.998 111.669 116.354C114.945 115.803 117.429 114.9 118.157 111.398C118.811 108.252 118.745 105.468 116.024 103.384C116.02 103.381 116.019 103.396 116.014 103.393Z" fill="#FFE04D"/>
<path d="M67.3739 94.4505C67.2817 93.5058 65.6393 93.4953 65.7315 94.4505C65.9736 96.9663 66.1753 102.603 61.7494 102.259C58.0613 101.972 58.2053 95.7084 58.0728 93.4327C58.0209 92.4827 56.3785 92.4723 56.4304 93.4327C56.6148 96.6949 56.6724 103.517 61.7437 103.747C67.2241 103.997 67.6966 97.9267 67.3681 94.4505H67.3739Z" fill="#4E4B3D"/>
<path d="M39.5896 96.5645C37.8008 96.5645 36.3462 97.3961 36.3462 98.4192C36.3462 99.4424 37.7961 100.274 39.5896 100.274C41.3832 100.274 42.8331 99.4424 42.8331 98.4192C42.8331 97.3961 41.3832 96.5645 39.5896 96.5645Z" fill="#FFF5C5"/>
<path d="M82.659 95.1465C80.8701 95.1465 79.4155 95.9781 79.4155 97.0013C79.4155 98.0244 80.8654 98.856 82.659 98.856C84.4525 98.856 85.8977 98.0244 85.8977 97.0013C85.8977 95.9781 84.4478 95.1465 82.659 95.1465Z" fill="#FFF5C5"/>
<ellipse cx="39.9013" cy="91.6106" rx="3.30556" ry="3.31132" fill="#4E4B3D"/>
<ellipse cx="81.7724" cy="89.3997" rx="3.30556" ry="3.31132" fill="#4E4B3D"/>
</g>
<defs>
<clipPath id="clip0_1082_3181">
<rect width="119" height="117" fill="white"/>
</clipPath>
</defs>
</svg>
