<svg width="24" height="24" viewBox="0 0 24 24" fill="none" xmlns="http://www.w3.org/2000/svg">
<rect x="1" y="2" width="22" height="19" fill="white"/>
<circle cx="12" cy="12" r="4" fill="#FF1F38"/>
<path d="M21.7021 1.07227H2.29787C1.02126 1.07227 0 2.09353 0 3.37014V20.6297C0 21.9063 1.02126 22.9276 2.29787 22.9276H21.7021C22.9787 22.9276 24 21.9063 24 20.6297V3.37014C24 2.09353 22.9787 1.07227 21.7021 1.07227ZM20.8341 3.06376L15.5234 7.25096C15.0639 6.99566 14.6043 6.84247 14.0936 6.84247C13.2766 6.84247 12.5106 7.14885 11.9489 7.76162C11.3873 7.19993 10.6213 6.84247 9.80426 6.84247C9.34469 6.84247 8.88511 6.94458 8.47662 7.14885L3.31914 3.06376H20.8341ZM15.4724 10.7233C15.4724 12.051 13.583 14.1446 12.0511 15.4723C10.2638 13.7361 8.52765 11.6425 8.57873 10.7744C8.57873 9.75315 9.1915 8.88508 9.85534 8.88508C10.366 8.88508 10.8256 9.34466 11.0298 10.0595C11.183 10.468 11.5404 10.7744 12 10.7744C12.4596 10.7744 12.8681 10.468 12.9703 10.0595C13.1234 9.34466 13.6341 8.88508 14.1447 8.88508C14.5022 8.88508 14.7575 9.08936 14.9107 9.24255C15.2681 9.59992 15.4724 10.1616 15.4724 10.7233ZM22.0085 20.5787C22.0085 20.7829 21.8553 20.9361 21.7021 20.9361H2.29787C2.14468 20.9361 1.99149 20.7829 1.99149 20.6297V4.59567L7.04681 8.62973C6.74043 9.19142 6.58724 9.90635 6.53616 10.6212C6.43405 13.0723 10.5191 16.7489 11.3362 17.4638C11.5404 17.617 11.7447 17.7191 12 17.7191C12.2043 17.7191 12.4596 17.668 12.5617 17.5148C13.0724 17.1063 17.3617 13.6339 17.4128 10.6723C17.4128 9.95738 17.2596 9.24245 16.9532 8.68077L22.0085 4.6467V20.5787Z" fill="#333333"/>
</svg>
