<svg width="31" height="31" viewBox="0 0 31 31" fill="none" xmlns="http://www.w3.org/2000/svg">
<path fill-rule="evenodd" clip-rule="evenodd" d="M9.00012 0C8.82219 0 8.65619 0.00258664 8.50139 0.0072933C6.96432 0.0540333 6.05805 1.29821 6.01879 2.67428C6.01659 2.75108 6.01452 2.82997 6.01265 2.9109C5.54781 2.93867 5.1236 2.96717 4.73896 2.99545C2.39398 3.16788 0.543382 4.95726 0.341169 7.32107C0.170095 9.32087 0.00012207 12.3851 0.00012207 16.6667C0.00012207 20.9482 0.170095 24.0124 0.341162 26.0123C0.543375 28.3761 2.39398 30.1655 4.73895 30.3379C6.92599 30.4987 10.3929 30.6667 15.3335 30.6667C20.2741 30.6667 23.7409 30.4987 25.928 30.3379C28.2729 30.1655 30.1235 28.3761 30.3257 26.0123C30.4968 24.0124 30.6668 20.9482 30.6668 16.6667C30.6668 12.3851 30.4968 9.32093 30.3257 7.32107C30.1235 4.95727 28.2729 3.16788 25.9279 2.99546C25.5433 2.96717 25.1191 2.93867 24.6543 2.9109C24.6524 2.82998 24.6503 2.75108 24.6481 2.67428C24.6089 1.29821 23.7026 0.0540333 22.1655 0.0072933C22.0107 0.00258664 21.8447 0 21.6668 0C21.4889 0 21.3229 0.00258664 21.1681 0.0072933C19.631 0.0540333 18.7247 1.29821 18.6855 2.67428L18.6849 2.69405C17.6534 2.67664 16.5371 2.66667 15.3335 2.66667C14.1298 2.66667 13.0135 2.67664 11.9821 2.69405L11.9815 2.67428C11.9422 1.29821 11.0359 0.0540333 9.49886 0.0072933C9.34406 0.00258664 9.17805 0 9.00012 0ZM4.93451 5.65494C5.26933 5.63032 5.63629 5.60545 6.03612 5.58101C6.17339 6.85213 7.06005 7.94887 8.50139 7.99273C8.65619 7.9974 8.82219 8 9.00012 8C9.17805 8 9.34406 7.9974 9.49886 7.99273C11.0227 7.9464 11.9266 6.72307 11.9803 5.36113C13.0095 5.34349 14.1263 5.33333 15.3335 5.33333C16.5407 5.33333 17.6575 5.34349 18.6867 5.36113C18.7403 6.72307 19.6442 7.9464 21.1681 7.99273C21.3229 7.9974 21.4889 8 21.6668 8C21.8447 8 22.0107 7.9974 22.1655 7.99273C23.6069 7.94887 24.4935 6.85213 24.6308 5.58101C25.0306 5.60545 25.3976 5.63033 25.7324 5.65495C26.792 5.73285 27.5801 6.51087 27.6688 7.5484C27.8329 9.46733 28.0001 12.4555 28.0001 16.6667C28.0001 20.8779 27.8329 23.866 27.6688 25.7849C27.5801 26.8225 26.792 27.6005 25.7324 27.6784C23.6153 27.8341 20.2138 28 15.3335 28C10.4531 28 7.05165 27.8341 4.93451 27.6784C3.8749 27.6005 3.08688 26.8225 2.99813 25.7849C2.83398 23.866 2.66679 20.8779 2.66679 16.6667C2.66679 12.4555 2.83398 9.46733 2.99813 7.5484C3.08689 6.51087 3.87491 5.73285 4.93451 5.65494ZM5.33346 14.6667C5.33346 13.1939 6.52739 12 8.00012 12C9.47285 12 10.6668 13.1939 10.6668 14.6667C10.6668 16.1394 9.47285 17.3333 8.00012 17.3333C6.52739 17.3333 5.33346 16.1394 5.33346 14.6667ZM5.33346 22C5.33346 20.5273 6.52739 19.3333 8.00012 19.3333C9.47285 19.3333 10.6668 20.5273 10.6668 22C10.6668 23.4727 9.47285 24.6667 8.00012 24.6667C6.52739 24.6667 5.33346 23.4727 5.33346 22ZM20.0001 14.6667C20.0001 13.1939 21.1941 12 22.6668 12C24.1395 12 25.3335 13.1939 25.3335 14.6667C25.3335 16.1394 24.1395 17.3333 22.6668 17.3333C21.1941 17.3333 20.0001 16.1394 20.0001 14.6667ZM12.6668 14.6667C12.6668 13.1939 13.8607 12 15.3335 12C16.8062 12 18.0001 13.1939 18.0001 14.6667C18.0001 16.1394 16.8062 17.3333 15.3335 17.3333C13.8607 17.3333 12.6668 16.1394 12.6668 14.6667ZM12.6668 22C12.6668 20.5273 13.8607 19.3333 15.3335 19.3333C16.8062 19.3333 18.0001 20.5273 18.0001 22C18.0001 23.4727 16.8062 24.6667 15.3335 24.6667C13.8607 24.6667 12.6668 23.4727 12.6668 22Z" fill="#4E4B3D"/>
</svg>
