<svg width="31" height="31" viewBox="0 0 31 31" fill="none" xmlns="http://www.w3.org/2000/svg">
<path fill-rule="evenodd" clip-rule="evenodd" d="M17.7516 0.513115C16.2126 -0.171038 14.4543 -0.171038 12.9153 0.513115C7.93413 2.72752 4.16769 5.62983 2.2175 7.3092C0.961188 8.391 0.285454 9.92767 0.202274 11.5161C0.110908 13.2608 6.10352e-05 15.9928 6.10352e-05 18.9845C6.10352e-05 21.2861 0.0656677 23.5051 0.137388 25.2443C0.248714 27.9438 2.39942 30.0822 5.09873 30.1745C7.42026 30.2538 10.8585 30.333 15.3335 30.333C19.8084 30.333 23.2465 30.2538 25.5681 30.1745C28.2675 30.0822 30.4181 27.9437 30.5295 25.2441C30.6011 23.5051 30.6667 21.2861 30.6667 18.9845C30.6667 15.9929 30.5559 13.2609 30.4646 11.5161C30.3815 9.92773 29.7057 8.391 28.4493 7.30914C26.4991 5.62978 22.7327 2.7275 17.7516 0.513115ZM13.9986 2.94985C14.8479 2.57227 15.819 2.57227 16.6683 2.94985C21.3334 5.02373 24.8793 7.754 26.7093 9.32987C27.3634 9.89307 27.7528 10.7241 27.8016 11.6555C27.8914 13.3713 28.0001 16.0541 28.0001 18.9845C28.0001 21.2386 27.9357 23.4191 27.8651 25.1343C27.8111 26.4423 26.7802 27.4648 25.477 27.5093C23.1847 27.5877 19.7769 27.6663 15.3335 27.6663C10.8899 27.6663 7.48213 27.5877 5.18983 27.5093C3.88664 27.4648 2.85573 26.4423 2.80179 25.1343C2.73105 23.4191 2.66673 21.2386 2.66673 18.9845C2.66673 16.054 2.77545 13.3713 2.86529 11.6555C2.91407 10.7241 3.3035 9.89313 3.95757 9.32987C5.78752 7.75407 9.33339 5.02375 13.9986 2.94985ZM10.0001 21.9925C9.07959 21.9925 8.33339 22.7387 8.33339 23.6591C8.33339 24.5796 9.07959 25.3258 10.0001 25.3258H20.6667C21.5872 25.3258 22.3334 24.5796 22.3334 23.6591C22.3334 22.7387 21.5872 21.9925 20.6667 21.9925H10.0001Z" fill="#4E4B3D"/>
</svg>
